<?xml version="1.0" encoding="utf-8"?>
<!-- Generator: Adobe Illustrator 21.1.0, SVG Export Plug-In . SVG Version: 6.00 Build 0)  -->
<svg version="1.1" id="Layer_1" xmlns="http://www.w3.org/2000/svg" xmlns:xlink="http://www.w3.org/1999/xlink" x="0px" y="0px"
	 viewBox="0 0 280.4 37.8" style="enable-background:new 0 0 280.4 37.8;" xml:space="preserve">
<style type="text/css">
	.st0{fill:#1D1D1B;}
	.st1{fill:#007859;}
</style>
<path class="st0" d="M54,12.2c-0.2-0.2-0.3-0.4-0.6-0.4c-0.2,0-1.5,1-3.6,1c-3.2,0-3.5-1.8-3.5-3.9V4.8c0-1.9,0-2-0.6-2h-0.6V2.5
	h3.8v0.3h-0.6c-0.6,0.1-0.6,0.1-0.6,2v3.8c0,2.2,0.4,3.7,2.8,3.7c1.6,0,2.6-1,2.8-1.2V4.8c0-1.9,0-2-0.6-2h-0.6V2.5h3.8v0.3h-0.6
	c-0.6,0.1-0.6,0.1-0.6,2v7.8l-0.5,0.1L54,12.2L54,12.2z M56.1,12.2h0.6c0.6,0,0.7-0.5,0.7-2.2V2.4l0.4-0.1c1.3,1.6,5.8,6.4,7.5,8V5
	c0-1.7,0-2.1-0.9-2.2h-0.6V2.5h3.3v0.3h-0.6c-0.6,0-0.7,0.5-0.7,2.2v7.6l-0.3,0.1c-0.3-0.4-1.3-1.4-2.9-3L58,4.8V10
	c0,1.7,0,2.1,0.8,2.2h0.6v0.3h-3.3V12.2z M68.3,12.2h0.6c0.6-0.1,0.6-0.1,0.6-2V4.8c0-1.9,0-2-0.6-2h-0.6V2.5h3.8v0.3h-0.6
	c-0.6,0.1-0.6,0.1-0.6,2v5.4c0,1.9,0,2,0.6,2h0.6v0.3h-3.8V12.2z M75.1,12.2h0.6c0.9-0.1,0.9-0.1,0.9-2V2.8h-0.9
	c-2.2,0-2.2,0.2-2.6,2h-0.4V4.1c0-0.7,0.1-1.4,0.2-1.8h8.6c0.1,0.3,0.2,1.1,0.2,1.8v0.7h-0.4c-0.3-1.8-0.4-2-2.6-2h-0.8v7.4
	c0,1.9,0,2,0.9,2h0.6v0.3h-4.3L75.1,12.2L75.1,12.2z M82.5,12.2h0.6c0.6-0.1,0.6-0.1,0.6-2V4.8c0-1.9,0-2-0.6-2h-0.6V2.5h6.7
	c0.1,0.3,0.2,0.9,0.2,1.6v0.6L89,4.8c-0.3-1.7-0.4-1.9-2.6-1.9h-1.3v4.3h1.4c1.2,0,1.5,0,1.6-0.6l0.1-0.5h0.4v2.8h-0.4l-0.1-0.5
	c-0.1-0.6-0.4-0.6-1.6-0.6h-1.4v4.5c0.6,0.1,1.1,0.2,1.7,0.2c2.5,0,2.6-0.9,2.9-2.2l0.4,0.1c0,1-0.2,1.7-0.5,2.6h-7.1
	C82.5,13,82.5,12.2,82.5,12.2z M90.8,12.2h0.6c0.6-0.1,0.6-0.1,0.6-2V4.8c0-1.9,0-2-0.6-2h-0.6V2.5h5.1c3.3,0,5.3,1.7,5.3,4.7
	c0,4-3,5.5-6.2,5.5h-4.1v-0.5C90.9,12.2,90.8,12.2,90.8,12.2z M93.4,11.8c0.6,0.1,1.2,0.2,1.8,0.2c2.8,0,4.4-1.6,4.4-4.6
	c0-3.2-1.8-4.6-4.5-4.6c-0.5,0-1.1,0.1-1.6,0.2v8.8C93.5,11.8,93.4,11.8,93.4,11.8z M110.7,6.7c1.2,0.7,2.5,1.3,2.5,3.2
	c0,2.1-1.9,2.9-3.6,2.9c-1.2,0-1.9-0.3-2.4-0.6c-0.3-0.6-0.5-1.7-0.5-2.7l0.5-0.1c0.2,1.1,0.7,3,2.9,3c1.1,0,1.9-0.7,1.9-1.9
	c0-1.1-0.9-1.9-2.2-2.4l-1-0.5c-0.9-0.5-1.7-1.4-1.7-2.6c0-1.9,1.6-2.7,3.2-2.7c1,0,1.7,0.2,2.1,0.5c0.1,0.5,0.2,1.7,0.2,2.1h-0.4
	c-0.2-0.8-0.4-2.1-2.2-2.1c-0.9,0-1.7,0.6-1.7,1.7c0,0.9,0.7,1.4,1.5,1.9C109.8,6.4,110.7,6.7,110.7,6.7z M115.8,12.2h0.6
	c0.9-0.1,0.9-0.1,0.9-2V2.8h-0.8c-2.2,0-2.2,0.2-2.6,2h-0.4V4.1c0-0.7,0.1-1.4,0.2-1.8h8.6c0.1,0.3,0.2,1.1,0.2,1.8v0.7h-0.4
	c-0.3-1.8-0.4-2-2.6-2h-0.8v7.4c0,1.9,0,2,0.9,2h0.6v0.3h-4.3L115.8,12.2L115.8,12.2z M121.3,12.2h0.3c0.6-0.1,0.7-0.3,1-1.2
	l3.2-7.8c0.1-0.3,0.2-0.6,0.4-0.9l0.4-0.2l3.5,9c0.2,0.6,0.4,1,0.8,1.1l0.6,0.1v0.3h-3.8v-0.3l0.7-0.1c0.3,0,0.5-0.1,0.5-0.3
	c0-0.1-0.1-0.2-0.1-0.3l-1.1-2.9c-0.6-0.1-1.1-0.2-1.7-0.2c-0.5,0-1.1,0.1-1.6,0.2l-0.8,2.2c-0.2,0.5-0.3,0.9-0.3,1
	c0,0.3,0.2,0.3,0.4,0.4l0.9,0.1v0.3h-3.2L121.3,12.2L121.3,12.2z M124.6,8c0.5,0,0.9-0.1,1.4-0.1s1,0,1.5,0.1l-1.4-3.7L124.6,8z
	 M132.6,12.2h0.6c0.9-0.1,0.9-0.1,0.9-2V2.8h-0.8c-2.2,0-2.2,0.2-2.6,2h-0.4V4.1c0-0.7,0.1-1.4,0.2-1.8h8.6c0.1,0.3,0.2,1.1,0.2,1.8
	v0.7h-0.4c-0.3-1.8-0.4-2-2.6-2h-0.8v7.4c0,1.9,0,2,0.9,2h0.6v0.3h-4.3L132.6,12.2z M139.7,12.2h0.6c0.6-0.1,0.6-0.1,0.6-2V4.8
	c0-1.9,0-2-0.6-2h-0.6V2.5h6.7c0.1,0.3,0.2,0.9,0.2,1.6v0.6l-0.4,0.1c-0.3-1.7-0.4-1.9-2.6-1.9h-1.3v4.3h1.4c1.2,0,1.5,0,1.6-0.6
	l0.1-0.5h0.4v2.8h-0.4l-0.1-0.5c-0.1-0.6-0.4-0.6-1.6-0.6h-1.4v4.5c0.6,0.1,1.1,0.2,1.7,0.2c2.5,0,2.6-0.9,2.9-2.2l0.4,0.1
	c0,1-0.2,1.7-0.5,2.6h-7.1V12.2z M152.2,6.7c1.2,0.7,2.5,1.3,2.5,3.2c0,2.1-1.9,2.9-3.6,2.9c-1.2,0-1.9-0.3-2.4-0.6
	c-0.3-0.6-0.5-1.7-0.5-2.7l0.5-0.1c0.2,1.1,0.7,3,2.9,3c1.1,0,1.9-0.7,1.9-1.9c0-1.1-0.9-1.9-2.2-2.4l-1-0.5
	c-0.9-0.5-1.7-1.4-1.7-2.6c0-1.9,1.6-2.7,3.2-2.7c1,0,1.7,0.2,2.1,0.5c0.1,0.5,0.2,1.7,0.2,2.1h-0.4c-0.2-0.8-0.4-2.1-2.2-2.1
	c-0.9,0-1.7,0.6-1.7,1.7c0,0.9,0.7,1.4,1.5,1.9C151.3,6.4,152.2,6.7,152.2,6.7z M169.3,9.6c-0.1,1-0.3,1.7-0.6,2.6
	c-0.4,0.2-1.7,0.6-3.2,0.6c-3,0-5.7-1.4-5.7-5.3c0-4.1,3.3-5.4,5.8-5.4c1.6,0,2.8,0.4,3.2,0.6c0.1,0.6,0.2,1.5,0.2,2.3l-0.4,0.1
	c-0.2-0.6-0.4-2.5-3-2.5c-2.5,0-4.1,1.7-4.1,4.6c0,2.6,1.3,5.1,4.1,5.1c2.6,0,3-1.6,3.4-2.8C169,9.5,169.3,9.6,169.3,9.6z
	 M170.5,7.5c0-3.3,2.6-5.4,5.6-5.4c2.8,0,5.2,1.8,5.2,5.2s-2.5,5.4-5.5,5.4S170.5,10.9,170.5,7.5z M176.1,12.3
	c2.6,0,3.6-2.3,3.6-4.5c0-2.9-1.5-5.1-3.9-5.1c-2.3,0-3.7,1.9-3.7,4.6C172.1,10.4,173.7,12.3,176.1,12.3L176.1,12.3z M181.7,12.2
	h0.6c0.6,0,0.7-0.5,0.7-2.2V2.4l0.4-0.1c1.3,1.6,5.8,6.4,7.5,8V5c0-1.7,0-2.1-0.9-2.2h-0.6V2.5h3.3v0.3h-0.6c-0.6,0-0.7,0.5-0.7,2.2
	v7.6l-0.3,0.1c-0.3-0.4-1.3-1.4-2.9-3l-4.6-4.9V10c0,1.7,0,2.1,0.8,2.2h0.6v0.3h-3.3V12.2z M193.9,12.2h0.6c0.6-0.1,0.6-0.1,0.6-2
	V4.8c0-1.9,0-2-0.6-2h-0.6V2.5h6.8c0.1,0.3,0.2,0.9,0.2,1.6v0.6l-0.4,0.1c-0.3-1.7-0.4-1.9-2.6-1.9h-1.4v4.5h1.5
	c1.2,0,1.5,0,1.6-0.6l0.1-0.5h0.4v2.8h-0.4l-0.1-0.5C199.5,8,199.2,8,198,8h-1.5v2.4c0,1.9,0,2,0.9,2h0.6v0.3h-4L193.9,12.2z
	 M201.7,12.2h0.6c0.6-0.1,0.6-0.1,0.6-2V4.8c0-1.9,0-2-0.6-2h-0.6V2.5h6.7c0.1,0.3,0.2,0.9,0.2,1.6v0.6l-0.4,0.1
	c-0.3-1.7-0.4-1.9-2.6-1.9h-1.3v4.3h1.4c1.2,0,1.5,0,1.6-0.6l0.1-0.5h0.4v2.8h-0.4l-0.1-0.5c-0.1-0.6-0.4-0.6-1.6-0.6h-1.4v4.5
	c0.6,0.1,1.1,0.2,1.7,0.2c2.5,0,2.6-0.9,2.9-2.2l0.4,0.1c0,1-0.2,1.7-0.5,2.6h-7.1V12.2z M210,12.2h0.6c0.6-0.1,0.6-0.1,0.6-2V4.8
	c0-1.9,0-2-0.6-2H210V2.5h4c1.5,0,3.5,0.2,3.5,2.6c0,1.4-1.3,2.3-2.1,2.7c0.2,0.4,0.7,1.4,1.2,2.2c0.6,1.2,1.3,2.1,1.7,2.3
	c0.2,0.1,0.4,0.2,0.8,0.2v0.3h-1.2c-1,0-1.7-0.7-2.2-1.5l-0.6-1.2c-0.4-0.8-0.8-1.3-1-1.5s-0.6-0.2-1-0.2h-0.6v2c0,1.9,0,2,0.6,2
	h0.6v0.3H210V12.2z M212.6,7.7h0.9c1.3,0,2.5-0.7,2.5-2.4c0-1.8-1.2-2.4-2.4-2.4c-0.3,0-0.7,0.1-1,0.1V7.7z M219.5,12.2h0.6
	c0.6-0.1,0.6-0.1,0.6-2V4.8c0-1.9,0-2-0.6-2h-0.6V2.5h6.7c0.1,0.3,0.2,0.9,0.2,1.6v0.6L226,4.8c-0.3-1.7-0.4-1.9-2.6-1.9h-1.3v4.3
	h1.4c1.2,0,1.5,0,1.6-0.6l0.1-0.5h0.4v2.8h-0.4l-0.1-0.5c-0.1-0.6-0.4-0.6-1.6-0.6h-1.4v4.5c0.6,0.1,1.1,0.2,1.7,0.2
	c2.5,0,2.6-0.9,2.9-2.2l0.4,0.1c0,1-0.2,1.7-0.5,2.6h-7.1L219.5,12.2L219.5,12.2z M227.8,12.2h0.6c0.6,0,0.7-0.5,0.7-2.2V2.4
	l0.4-0.1c1.3,1.6,5.8,6.4,7.5,8V5c0-1.7,0-2.1-0.9-2.2h-0.6V2.5h3.3v0.3h-0.6c-0.6,0-0.7,0.5-0.7,2.2v7.6l-0.3,0.1
	c-0.3-0.4-1.3-1.4-2.9-3l-4.6-4.9V10c0,1.7,0,2.1,0.8,2.2h0.6v0.3h-3.3V12.2z M248.8,9.6c-0.1,1-0.3,1.7-0.6,2.6
	c-0.4,0.2-1.7,0.6-3.2,0.6c-3,0-5.7-1.4-5.7-5.3c0-4.1,3.3-5.4,5.8-5.4c1.6,0,2.8,0.4,3.2,0.6c0.1,0.6,0.2,1.5,0.2,2.3l-0.4,0.1
	c-0.2-0.6-0.4-2.5-3-2.5c-2.5,0-4.1,1.7-4.1,4.6c0,2.6,1.3,5.1,4.1,5.1c2.6,0,3-1.6,3.4-2.8C248.5,9.5,248.8,9.6,248.8,9.6z
	 M249.8,12.2h0.6c0.6-0.1,0.6-0.1,0.6-2V4.8c0-1.9,0-2-0.6-2h-0.6V2.5h6.7c0.1,0.3,0.2,0.9,0.2,1.6v0.6l-0.4,0.1
	c-0.3-1.7-0.4-1.9-2.6-1.9h-1.3v4.3h1.4c1.2,0,1.5,0,1.6-0.6l0.1-0.5h0.4v2.8h-0.4l-0.1-0.5c-0.1-0.6-0.4-0.6-1.6-0.6h-1.4v4.5
	c0.6,0.1,1.1,0.2,1.7,0.2c2.5,0,2.6-0.9,2.9-2.2l0.4,0.1c0,1-0.2,1.7-0.5,2.6h-7.1L249.8,12.2L249.8,12.2z M261.9,7.5
	c0-3.3,2.6-5.4,5.6-5.4c2.8,0,5.2,1.8,5.2,5.2s-2.5,5.4-5.5,5.4S261.9,10.9,261.9,7.5L261.9,7.5z M267.5,12.3c2.6,0,3.6-2.3,3.6-4.5
	c0-2.9-1.5-5.1-3.9-5.1c-2.3,0-3.7,1.9-3.7,4.6C263.6,10.4,265.2,12.3,267.5,12.3z M273.4,12.2h0.6c0.6-0.1,0.6-0.1,0.6-2V4.8
	c0-1.9,0-2-0.6-2h-0.6V2.5h6.8c0.1,0.3,0.2,0.9,0.2,1.6v0.6L280,4.8c-0.3-1.7-0.4-1.9-2.6-1.9H276v4.5h1.5c1.2,0,1.5,0,1.6-0.6
	l0.1-0.5h0.4v2.8h-0.4l-0.1-0.5C279,8,278.7,8,277.5,8H276v2.4c0,1.9,0,2,0.9,2h0.6v0.3h-4v-0.5H273.4z M61.3,30.7
	c-0.2,1.6-0.4,2.9-1.1,4.4c-0.7,0.3-2.8,1-5.4,1c-5,0-9.7-2.3-9.7-9c0-7,5.6-9.1,9.7-9.1c2.7,0,4.7,0.7,5.3,1.1
	c0.2,1,0.4,2.6,0.4,3.9l-0.7,0.2c-0.3-1-0.6-4.2-5.1-4.2c-4.3,0-7,2.8-7,7.7c0,4.5,2.1,8.6,6.9,8.6c4.3,0,5-2.6,5.8-4.7L61.3,30.7
	L61.3,30.7z M61.9,35.2l0.5-0.1c1-0.2,1.1-0.4,1.8-2l5.4-13.2l0.6-1.5l0.8-0.3l5.8,15.1c0.4,1,0.7,1.6,1.3,1.8l1,0.2v0.6h-6.4v-0.6
	l1.2-0.2c0.5-0.1,0.8-0.2,0.8-0.5c0-0.2-0.1-0.4-0.2-0.5l-1.8-5c-1-0.2-1.9-0.3-2.9-0.3c-0.9,0-1.8,0.1-2.7,0.3l-1.3,3.6
	c-0.3,0.8-0.5,1.5-0.5,1.8c0,0.5,0.3,0.6,0.6,0.6l1.6,0.2v0.6H62L61.9,35.2z M67.4,28c0.8-0.1,1.6-0.1,2.4-0.1s1.7,0,2.5,0.1
	l-2.4-6.3L67.4,28z M81.1,35.2l1-0.1c1.4-0.1,1.4-0.2,1.4-3.4V19.3h-1.4c-3.7,0-3.7,0.4-4.3,3.4h-0.6c0-0.1-0.1-0.8-0.1-1.1
	c0-1.2,0.2-2.4,0.3-3H92c0.1,0.6,0.3,1.8,0.3,3c0,0.3-0.1,1-0.1,1.1h-0.6c-0.6-3-0.6-3.4-4.3-3.4h-1.4v12.4c0,3.2,0,3.3,1.5,3.4
	l0.9,0.1v0.6h-7.2C81.1,35.8,81.1,35.2,81.1,35.2z M93.6,35.2l0.9-0.1c1-0.1,1-0.2,1-3.4v-9.1c0-3.2,0-3.3-1-3.4l-0.9-0.1v-0.6h6.3
	v0.6L99,19.2c-1,0.1-1,0.2-1,3.4v3.7h9.3v-3.7c0-3.2,0-3.3-1-3.4l-0.9-0.1v-0.6h6.3v0.6l-0.9,0.1c-1,0.1-1,0.2-1,3.4v9.1
	c0,3.2,0,3.3,1,3.4l0.9,0.1v0.6h-6.3v-0.6l0.9-0.1c1-0.1,1-0.2,1-3.4v-4.6H98v4.6c0,3.2,0,3.3,1,3.4l0.9,0.1v0.6h-6.3
	C93.6,35.8,93.6,35.2,93.6,35.2z M112.5,27.3c0-5.6,4.4-9.1,9.4-9.1c4.8,0,8.9,3.1,8.9,8.9c0,5.7-4.2,9.2-9.4,9.2
	C116.2,36.2,112.5,32.9,112.5,27.3z M121.9,35.3c4.4,0,6.1-3.8,6.1-7.6c0-4.9-2.5-8.7-6.6-8.7c-3.9,0-6.2,3.3-6.2,7.8
	C115.2,32.1,117.9,35.3,121.9,35.3z M131.9,35.2l0.9-0.1c1-0.1,1-0.2,1-3.4v-9.1c0-3.2,0-3.3-1-3.4l-0.9-0.1v-0.6h6.3v0.6l-0.9,0.1
	c-1,0.1-1,0.2-1,3.4v12.1c0.9,0.2,1.9,0.3,2.8,0.3c3.9,0,4.1-1.6,4.6-3.7l0.7,0.1c-0.1,1.7-0.4,2.9-0.9,4.3h-11.7L131.9,35.2
	L131.9,35.2z M145.9,35.2l0.9-0.1c1-0.1,1-0.2,1-3.4v-9.1c0-3.2,0-3.3-1-3.4l-0.9-0.1v-0.6h6.3v0.6l-0.9,0.1c-1,0.1-1,0.2-1,3.4v9.1
	c0,3.2,0,3.3,1,3.4l0.9,0.1v0.6h-6.3C145.9,35.8,145.9,35.2,145.9,35.2z M169.9,30.7c-0.2,1.6-0.4,2.9-1.1,4.4c-0.7,0.3-2.8,1-5.4,1
	c-5,0-9.7-2.3-9.7-9c0-7,5.6-9.1,9.7-9.1c2.7,0,4.6,0.7,5.3,1.1c0.2,1,0.4,2.6,0.4,3.9l-0.7,0.2c-0.3-1-0.6-4.2-5.1-4.2
	c-4.3,0-7,2.8-7,7.7c0,4.5,2.1,8.6,6.9,8.6c4.3,0,5-2.6,5.8-4.7L169.9,30.7L169.9,30.7z M179.3,35.2l0.9-0.1c1-0.1,1-0.2,1-3.4v-9.1
	c0-3.2,0-3.3-1-3.4l-0.9-0.1v-0.6h7c4,0,5.1,1.6,5.1,3.6c0,2.8-2.6,4-3.6,4.2v0.1c2.1,0.2,4.6,1.6,4.6,4.5c0,3.5-2.9,4.9-6.6,4.9
	h-6.6v-0.6H179.3z M183.7,26.2h1c2.1,0,4.3-0.5,4.3-3.6c0-2.2-1.5-3.3-3.8-3.3c-0.5,0-1.1,0.1-1.5,0.1V26.2z M183.7,34.7
	c0.8,0.2,1.6,0.3,2.4,0.3c2.4,0,3.6-1.4,3.6-3.7c0-1.6-0.9-4.4-4.9-4.4h-1.1C183.7,26.9,183.7,34.7,183.7,34.7z M194.2,35.2l0.9-0.1
	c1-0.1,1-0.2,1-3.4v-9.1c0-3.2,0-3.3-1-3.4l-0.9-0.1v-0.6h6.3v0.6l-0.9,0.1c-1,0.1-1,0.2-1,3.4v9.1c0,3.2,0,3.3,1,3.4l0.9,0.1v0.6
	h-6.3C194.2,35.8,194.2,35.2,194.2,35.2z M209,25.9c2.1,1.2,4.2,2.3,4.2,5.4c0,3.5-3.3,4.9-6,4.9c-2,0-3.3-0.5-4.1-1
	c-0.5-1-0.8-3-0.8-4.6l0.8-0.2c0.3,1.9,1.3,5,4.8,5c1.8,0,3.1-1.2,3.1-3.2c0-1.9-1.6-3.2-3.6-4.1l-1.7-0.9c-1.5-0.8-2.9-2.4-2.9-4.4
	c0-3.2,2.7-4.5,5.4-4.5c1.6,0,2.9,0.4,3.6,0.8c0.2,0.8,0.3,3,0.3,3.6h-0.7c-0.3-1.3-0.7-3.6-3.6-3.6c-1.5,0-2.8,1.1-2.8,2.8
	c0,1.5,1.1,2.4,2.5,3.2L209,25.9z M215.1,35.2l0.9-0.1c1-0.1,1-0.2,1-3.4v-9.1c0-3.2,0-3.3-1-3.4l-0.9-0.1v-0.6h6.3v0.6l-0.9,0.1
	c-1,0.1-1,0.2-1,3.4v3.7h9.3v-3.7c0-3.2,0-3.3-1-3.4l-0.9-0.1v-0.6h6.3v0.6l-0.9,0.1c-1,0.1-1,0.2-1,3.4v9.1c0,3.2,0,3.3,1,3.4
	l0.9,0.1v0.6h-6.3v-0.6l0.9-0.1c1-0.1,1-0.2,1-3.4v-4.6h-9.3v4.6c0,3.2,0,3.3,1,3.4l0.9,0.1v0.6h-6.3
	C215.1,35.8,215.1,35.2,215.1,35.2z M234.5,27.3c0-5.6,4.4-9.1,9.4-9.1c4.8,0,8.9,3.1,8.9,8.9c0,5.7-4.2,9.2-9.4,9.2
	C238.2,36.2,234.5,32.9,234.5,27.3L234.5,27.3z M243.9,35.3c4.4,0,6.1-3.8,6.1-7.6c0-4.9-2.5-8.7-6.6-8.7c-3.9,0-6.2,3.3-6.2,7.8
	C237.2,32.1,240,35.3,243.9,35.3z M254,35.2l0.9-0.1c1-0.1,1-0.2,1-3.4v-9.1c0-3.2,0-3.3-1-3.4l-0.9-0.1v-0.6h6.8
	c2.5,0,6.3,0.4,6.3,4.7c0,3.6-4,5.2-6.4,5.2h-0.4v-0.6c1.1,0,4.1-0.5,4.1-4.5c0-3.1-2.1-4-4.4-4c-0.5,0-1.1,0.1-1.6,0.2v12.1
	c0,3.2,0,3.3,1.4,3.4l0.9,0.1v0.6h-6.8v-0.5C253.9,35.2,254,35.2,254,35.2z M275.5,25.9c2.1,1.2,4.2,2.3,4.2,5.4
	c0,3.5-3.3,4.9-6,4.9c-2,0-3.3-0.5-4.1-1c-0.5-1-0.8-3-0.8-4.6l0.8-0.2c0.3,1.9,1.3,5,4.8,5c1.8,0,3.1-1.2,3.1-3.2
	c0-1.9-1.6-3.2-3.6-4.1l-1.7-0.9c-1.5-0.8-2.9-2.4-2.9-4.4c0-3.2,2.7-4.5,5.4-4.5c1.6,0,2.9,0.4,3.6,0.8c0.2,0.8,0.3,3,0.3,3.6h-0.7
	c-0.3-1.3-0.7-3.6-3.6-3.6c-1.5,0-2.8,1.1-2.8,2.8c0,1.5,1.1,2.4,2.5,3.2L275.5,25.9L275.5,25.9z"/>
<g>
	<path class="st1" d="M17,0C8,0.9,0.9,8,0,17h17C17,17,17,0,17,0z M0,20.8c0.9,9,8,16.1,17,17v-17C17,20.8,0,20.8,0,20.8z M37.7,17
		c-0.9-9-8-16.1-17-17v17H37.7z M20.7,37.7c9-0.9,16.1-8,17-17h-17V37.7z"/>
</g>
</svg>
